<?xml version="1.0" encoding="UTF-8" standalone="no"?>
<!-- Created with Inkscape (http://www.inkscape.org/) -->

<svg
   width="100mm"
   height="100mm"
   viewBox="0 0 100 100"
   version="1.1"
   id="svg5"
   inkscape:version="1.1.1 (3bf5ae0d25, 2021-09-20)"
   sodipodi:docname="marlin.svg"
   xmlns:inkscape="http://www.inkscape.org/namespaces/inkscape"
   xmlns:sodipodi="http://sodipodi.sourceforge.net/DTD/sodipodi-0.dtd"
   xmlns="http://www.w3.org/2000/svg"
   xmlns:svg="http://www.w3.org/2000/svg">
  <sodipodi:namedview
     id="namedview7"
     pagecolor="#ffffff"
     bordercolor="#666666"
     borderopacity="1.0"
     inkscape:pageshadow="2"
     inkscape:pageopacity="0.0"
     inkscape:pagecheckerboard="0"
     inkscape:document-units="mm"
     showgrid="false"
     inkscape:zoom="0.90583672"
     inkscape:cx="329.52959"
     inkscape:cy="99.355654"
     inkscape:window-width="2560"
     inkscape:window-height="1440"
     inkscape:window-x="1920"
     inkscape:window-y="0"
     inkscape:window-maximized="0"
     inkscape:current-layer="layer1"
     showguides="true"
     inkscape:guide-bbox="true" />
  <defs
     id="defs2" />
  <g
     inkscape:label="Layer 1"
     inkscape:groupmode="layer"
     id="layer1">
    <path
       style="fill:#158dcc;fill-opacity:1;fill-rule:evenodd;stroke:#02455d;stroke-width:0.7;stroke-linecap:round;stroke-linejoin:round;stroke-miterlimit:4;stroke-dasharray:none;stroke-opacity:1"
       d="m 26.34013,63.057305 c 8.12105,2.477832 14.01533,16.130791 13.40896,16.802035 -0.60636,0.67125 -3.53429,-2.857576 -6.37728,-5.832199 -2.74724,-2.874434 -5.89541,-4.985597 -5.89541,-4.985597 0,0 -1.23607,0.338576 -2.22113,0.15128 -0.98506,-0.187295 -2.15245,-0.979932 -2.15245,-0.979932 0,0 -3.47223,-0.29513 -8.45071,1.854964 C 11.56955,71.399136 3.9932201,75.634078 3.3821901,74.645939 2.7711701,73.657798 18.21907,60.579473 26.34013,63.057305 Z"
       id="path121"
       sodipodi:nodetypes="zzscscszz" />
    <path
       style="opacity:1;fill:#158dcc;fill-opacity:1;fill-rule:evenodd;stroke:#02455d;stroke-width:0.6;stroke-linecap:round;stroke-linejoin:round;stroke-miterlimit:4;stroke-dasharray:none;stroke-opacity:1"
       d="m 37.21995,36.425354 3.14556,-3.084599 c 0,0 0.43094,-0.393104 0.52936,-0.716393 0.0984,-0.32329 0.0977,-0.733613 0.0977,-0.733613 0,0 0.77659,0.130342 1.82427,-0.356101 1.1775,-0.546717 1.17335,-1.661774 1.17335,-1.661774 0,0 0.49644,0.367691 0.98603,-0.140744 0.4896,-0.508435 0.30378,-1.830581 0.30378,-1.830581 0,0 1.15495,0.31037 1.82455,-0.501056 0.66961,-0.811427 0.51029,-2.880701 0.51029,-2.880701 0,0 0.9083,0.553128 1.63849,-0.211109 0.86304,-0.903294 0.67285,-3.665661 0.67285,-3.665661 0,0 3.22845,1.668466 5.54894,4.268269 2.94826,3.303132 3.66839,5.785495 3.66839,5.785495 z"
       id="path36505"
       sodipodi:nodetypes="ccscscscscscscc" />
    <path
       style="fill:#022635;fill-opacity:1;fill-rule:evenodd;stroke:none;stroke-width:0.264583px;stroke-linecap:butt;stroke-linejoin:miter;stroke-opacity:1"
       d="m 71.4218,41.58447 c 0,0 0.92284,4.120831 1.21523,4.460833 0.29239,0.340005 3.51444,3.291551 3.51444,3.291551 l -7.18419,-1.502368 -3.85267,-5.779601 2.67287,-1.580944 z"
       id="path41657" />
    <path
       style="fill:#ff5d96;fill-opacity:1;fill-rule:evenodd;stroke:none;stroke-width:0.264583px;stroke-linecap:butt;stroke-linejoin:miter;stroke-opacity:1"
       d="m 67.8848,41.745108 c 0.0549,10e-4 1.29389,0.934536 1.70534,1.609896 0.41145,0.67536 1.38181,3.666904 1.38181,3.666904 l -2.87607,-1.970962 z"
       id="path44678" />
    <path
       style="opacity:1;fill:#158dcc;fill-opacity:1;fill-rule:evenodd;stroke:#034d66;stroke-width:0.6;stroke-linecap:round;stroke-linejoin:round;stroke-miterlimit:4;stroke-dasharray:none;stroke-opacity:0.901961"
       d="m 53.44401,50.533008 c 0.33245,0.08732 2.42813,3.622216 3.22813,6.149828 0.58694,1.854481 1.33655,5.299145 1.47892,5.627828 0.14237,0.328681 1.16742,1.585826 1.16742,1.585826 0,0 0.97829,-2.906494 0.97351,-5.639299 -0.004,-2.732808 -0.37375,-8.928872 -0.37375,-8.928872 z"
       id="path48520"
       sodipodi:nodetypes="csscscc" />
    <path
       style="fill:#1da6dd;fill-opacity:1;fill-rule:evenodd;stroke:#02455d;stroke-width:0.6;stroke-linecap:round;stroke-linejoin:round;stroke-miterlimit:4;stroke-dasharray:none;stroke-opacity:1"
       d="m 23.88025,65.013948 c 0,0 0.19842,1.126243 1.49022,1.309319 1.29179,0.18308 2.84685,-0.633533 2.84685,-0.633533 0,0 1.63741,-4.819665 5.73471,-7.707748 6.82693,-4.812149 11.65495,-2.230386 19.63068,-4.541043 7.97574,-2.310657 14.41073,-4.496401 14.41073,-4.496401 l 8.00544,1.478722 c 0,0 0.57268,0.266013 1.07726,-0.08875 0.50459,-0.35492 0.71872,-0.498435 0.71872,-0.498435 l -6.96308,-3.247738 -3.48925,-4.126984 27.03373,-0.06422 c 0,0 0.87606,0.176118 0.91127,-0.318959 0.0352,-0.495074 -1.14821,-0.508923 -1.14821,-0.508923 L 77.35428,38.623231 c 0,0 -8.42729,-8.605933 -14.62103,-9.009274 -6.19373,-0.403341 -20.58709,0.513682 -29.28778,9.945486 -11.79851,12.789938 -9.56522,25.454513 -9.56522,25.454513 z"
       id="path7513"
       sodipodi:nodetypes="cscsscccccccsccssc" />
    <path
       style="opacity:1;fill:#ecf2f2;fill-opacity:1;fill-rule:evenodd;stroke:none;stroke-width:0.264583px;stroke-linecap:butt;stroke-linejoin:miter;stroke-opacity:1"
       d="m 24.03179,64.897116 c 0,0 0.59833,1.422106 1.62189,1.471949 1.02355,0.04984 2.10544,-0.845246 2.10544,-0.845246 0,0 2.63989,-6.591961 8.37586,-9.275647 4.60864,-2.156243 9.56871,-0.957898 17.76866,-3.171805 6.80895,-1.838345 14.06485,-4.432514 14.06485,-4.432514 l 7.53135,1.39273 c 0,0 0.77783,0.196401 1.04997,0.195924 0.27215,-4.76e-4 0.663,-0.345496 0.663,-0.345496 0,0 -6.24302,-2.862335 -6.56129,-3.113612 -0.23556,-0.185968 -3.6035,-4.180023 -3.6035,-4.180023 l 0.9945,-0.394846 25.56271,-0.1516 c 0,0 -24.69092,-0.817358 -24.88468,-0.817019 -0.19374,3.39e-4 -5.11124,-2.127889 -6.29678,-2.566052 -1.49065,-0.550921 -4.81026,-0.427886 -4.81026,-0.427886 0,0 -13.11613,1.882732 -16.52919,3.730162 -3.41305,1.847429 -11.31077,8.233521 -13.48309,11.138457 -2.86546,3.831845 -3.56944,11.792527 -3.56944,11.792527 z"
       id="path57395"
       sodipodi:nodetypes="cscssccscscccsscssc" />
    <path
       style="opacity:1;fill:#f6c835;fill-opacity:1;fill-rule:evenodd;stroke:none;stroke-width:0.264583px;stroke-linecap:butt;stroke-linejoin:miter;stroke-opacity:1"
       d="m 56.93848,38.274895 c 0,0 -12.15194,-0.697898 -21.14421,5.690356 -13.04496,9.267349 -11.76248,20.931865 -11.76248,20.931865 0,0 0.76187,-14.450471 14.83428,-19.400088 11.3759,-4.001188 19.02369,-4.033054 19.02369,-4.033054 0,0 -0.19315,-0.897802 -0.38873,-1.661797 -0.19556,-0.763995 -0.56255,-1.527282 -0.56255,-1.527282 z"
       id="path67778"
       sodipodi:nodetypes="cscscsc" />
    <path
       style="fill:#178cc9;fill-opacity:1;fill-rule:evenodd;stroke:#02455d;stroke-width:0.6;stroke-linecap:butt;stroke-linejoin:miter;stroke-miterlimit:4;stroke-dasharray:none;stroke-opacity:1"
       d="m 46.50157,42.449132 5.3419,-2.72877 c 5.9e-4,3.69e-4 -2.96669,-1.333218 -4.47991,-2.369762 -1.47997,-1.01377 -5.70957,-3.648989 -8.99761,-4.456907 -2.81194,-0.690933 -6.28522,-0.849524 -6.49522,-0.18195 -0.20999,0.667577 2.8355,2.120837 3.62523,2.361612 0.78973,0.240777 5.171,2.123048 7.25683,3.4179 2.08583,1.294854 3.24598,2.160379 3.4266,2.577695 0.1806,0.417313 0.32218,1.380178 0.32218,1.380178 z"
       id="path13469"
       sodipodi:nodetypes="ccsssssscc" />
    <g
       id="g80351"
       transform="rotate(-0.10033484,778.30478,59695.385)">
      <ellipse
         style="color:#000000;overflow:visible;opacity:1;fill:#fffeff;fill-opacity:1;stroke:none;stroke-width:0.686103;stroke-linecap:round;stroke-linejoin:round;stroke-miterlimit:4;stroke-dasharray:none;stroke-opacity:1"
         id="path17963"
         cx="171.08801"
         cy="34.944538"
         rx="1.8278917"
         ry="2.3968177" />
      <ellipse
         style="color:#000000;overflow:visible;opacity:1;fill:#000000;fill-opacity:1;stroke:none;stroke-width:0.709233;stroke-linecap:round;stroke-linejoin:round;stroke-miterlimit:4;stroke-dasharray:none;stroke-opacity:1"
         id="path19073"
         cx="174.0526"
         cy="11.620122"
         rx="1.3111422"
         ry="1.800385"
         transform="matrix(0.99050642,0.13746651,-0.13621014,0.99067997,0,0)" />
      <ellipse
         style="color:#000000;overflow:visible;opacity:1;fill:#fffffe;fill-opacity:1;stroke:none;stroke-width:0.634973;stroke-linecap:round;stroke-linejoin:round;stroke-miterlimit:4;stroke-dasharray:none;stroke-opacity:1"
         id="path19957"
         cx="170.69946"
         cy="34.008678"
         rx="0.63569617"
         ry="0.79945499" />
      <path
         style="opacity:1;fill:#f3c73d;fill-opacity:1;fill-rule:evenodd;stroke:none;stroke-width:0.264583px;stroke-linecap:butt;stroke-linejoin:miter;stroke-opacity:1"
         d="m 169.77791,36.178875 c 0,0 0.25451,0.949804 0.93928,0.895142 0.74247,-0.05927 0.99843,-1.083688 0.99843,-1.083688 0,0 -0.43554,0.640581 -0.99594,0.681816 -0.48914,0.03599 -0.94177,-0.49327 -0.94177,-0.49327 z"
         id="path20332"
         sodipodi:nodetypes="cscsc" />
      <path
         style="opacity:1;fill:#02455d;fill-opacity:1;fill-rule:evenodd;stroke:none;stroke-width:0.265;stroke-linecap:butt;stroke-linejoin:miter;stroke-miterlimit:4;stroke-dasharray:none;stroke-opacity:1"
         d="m 172.31588,36.753834 c 0,0 1.17525,-1.213903 0.95067,-2.600838 -0.23379,-1.443896 -1.02712,-2.217782 -2.08086,-2.199804 -1.00082,0.01707 -2.13527,0.9574 -2.24885,2.338985 -0.11358,1.381588 0.7463,2.52117 0.7463,2.52117 0,0 -0.5778,-1.419797 -0.37797,-2.432333 0.19982,-1.012537 0.95216,-1.811261 1.9633,-1.671535 1.01114,0.139727 1.63669,1.295987 1.63892,2.102633 0.002,0.813994 -0.59151,1.941722 -0.59151,1.941722 z"
         id="path23644"
         sodipodi:nodetypes="cssscsssc" />
    </g>
    <path
       style="opacity:1;fill:#158dcc;fill-opacity:1;fill-rule:evenodd;stroke:#02455d;stroke-width:0.6;stroke-linecap:round;stroke-linejoin:round;stroke-miterlimit:4;stroke-dasharray:none;stroke-opacity:1"
       d="m 33.55526,56.972379 c 0,0 1.11888,-0.05331 1.30924,0.644396 0.14485,0.530847 0.182,1.436768 -0.0794,2.210006 -0.26438,0.78205 -0.46657,1.950663 -0.46657,1.950663 0,0 -0.1583,1.086508 0.26908,1.152129 0.41407,0.06358 2.48717,-2.107974 3.26294,-3.385384 0.97229,-1.60103 2.15795,-5.307359 2.15795,-5.307359 0,0 -1.58349,0.06481 -3.19202,0.937136 -1.09396,0.59326 -3.26123,1.798414 -3.26123,1.798414 z"
       id="path29975"
       sodipodi:nodetypes="csscsscscc" />
    <path
       style="opacity:1;fill:#02455d;fill-opacity:1;fill-rule:evenodd;stroke:none;stroke-width:0.264583px;stroke-linecap:butt;stroke-linejoin:miter;stroke-opacity:1"
       d="m 62.09831,32.759874 c -0.17849,-0.198915 -2.16154,1.339022 -3.24147,2.373074 -0.80752,0.77322 -2.18633,2.161653 -2.09941,3.084716 0.14286,1.517286 0.43817,2.096426 0.99138,3.026301 0.35883,0.603127 0.96147,1.606835 1.17586,1.40313 0.15838,-0.150491 -0.83187,-1.761411 -0.99884,-2.340153 -0.33795,-1.171297 -0.60554,-1.579804 -0.4036,-2.245298 0.20195,-0.665495 1.00619,-1.601719 1.67409,-2.371466 1.07485,-1.238721 3.07557,-2.736873 2.90199,-2.930304 z"
       id="path71762"
       sodipodi:nodetypes="sssssssss" />
    <path
       style="opacity:1;fill:#02455d;fill-opacity:1;fill-rule:evenodd;stroke:none;stroke-width:0.264583px;stroke-linecap:butt;stroke-linejoin:miter;stroke-opacity:1"
       d="m 62.79709,40.5887 c 0,0 -1.59058,0.104828 -1.64342,-0.08212 -0.0528,-0.18695 0.82862,-0.518713 1.94448,-0.54154 0.91186,-0.01866 2.30104,0.319819 2.19839,0.506187 -0.11186,0.203125 -1.14488,0.10905 -1.14488,0.10905 0,0 1.37739,0.779727 1.99182,1.06965 0.56548,0.266826 2.11164,0.706629 2.11164,0.706629 l -0.62345,0.305886 -0.23953,0.240768 -0.35164,-0.278185 c 0,0 -1.52424,-0.586523 -2.18509,-1.02481 -0.66086,-0.438288 -2.05832,-1.011516 -2.05832,-1.011515 z"
       id="path77446"
       sodipodi:nodetypes="cssscsccccsc" />
  </g>
</svg>
